<?xml version="1.0" standalone="no"?>
<!DOCTYPE svg PUBLIC "-//W3C//DTD SVG 20010904//EN"
 "http://www.w3.org/TR/2001/REC-SVG-20010904/DTD/svg10.dtd">
<svg version="1.0" xmlns="http://www.w3.org/2000/svg"
 width="460.000000pt" height="460.000000pt" viewBox="0 0 460.000000 460.000000"
 preserveAspectRatio="xMidYMid meet">
<metadata>
Created by potrace 1.14, written by Peter Selinger 2001-2017
</metadata>
<g transform="translate(0.000000,460.000000) scale(0.100000,-0.100000)"
fill="#000000" stroke="none">
<path d="M0 3649 c0 -535 4 -948 9 -945 4 3 11 23 15 44 3 21 15 61 27 88 32
74 82 178 91 189 5 6 22 30 38 55 16 25 42 63 56 85 36 53 218 233 274 270 24
17 73 51 109 78 35 26 70 47 77 47 8 0 14 5 14 10 0 6 7 10 15 10 8 0 15 4 15
8 0 12 50 33 61 26 5 -3 12 2 15 11 4 9 16 21 28 26 11 5 29 13 39 19 30 17
51 29 97 53 25 13 61 33 81 44 19 11 64 31 100 43 35 13 71 29 79 35 8 7 35
19 60 28 172 60 210 75 224 86 8 7 21 11 28 9 7 -3 18 1 23 8 6 7 35 19 65 27
30 8 93 27 140 41 47 15 110 34 140 43 30 8 57 18 60 22 3 3 15 7 28 9 l23 2
-23 -32 c-21 -30 -38 -59 -73 -125 -7 -13 -15 -19 -19 -15 -5 4 -7 0 -5 -8 4
-17 -19 -89 -34 -107 -13 -17 -88 -16 -121 0 -31 17 -24 29 13 22 l26 -5 -27
11 c-17 6 -25 16 -21 25 6 16 -20 29 -37 19 -8 -5 -8 -10 0 -20 6 -8 10 -21 8
-31 -2 -12 5 -20 22 -24 23 -7 24 -8 5 -15 -11 -4 -36 -14 -55 -23 -19 -8 -37
-13 -38 -11 -2 2 -10 -11 -17 -28 -14 -34 -5 -84 19 -109 31 -31 102 -74 121
-74 13 0 29 -7 36 -16 11 -14 10 -19 -11 -36 -20 -16 -25 -31 -29 -90 -6 -70
-6 -71 -41 -82 -44 -14 -56 -39 -70 -151 -7 -49 -16 -97 -21 -106 -10 -20
-140 -89 -168 -89 -29 0 -105 -37 -127 -62 -11 -11 -38 -38 -61 -61 -24 -22
-43 -46 -43 -52 0 -12 -116 -125 -129 -125 -5 0 -18 -15 -30 -32 -29 -47 -61
-79 -72 -72 -5 3 -9 2 -7 -3 4 -15 -32 -84 -41 -79 -5 3 -11 -5 -15 -17 -6
-26 -41 -48 -80 -50 -14 -1 -26 -6 -26 -11 0 -4 -11 -6 -24 -4 -16 3 -27 0
-30 -9 -3 -8 -10 -11 -16 -8 -5 3 -10 -1 -10 -10 0 -10 6 -15 13 -12 6 2 30
10 52 17 22 7 48 17 58 22 11 5 20 8 22 6 6 -6 -26 -43 -33 -38 -3 3 -8 -8 -9
-24 -1 -21 -21 -49 -71 -100 -82 -84 -130 -137 -151 -170 -9 -13 -28 -41 -43
-63 -36 -55 -77 -87 -137 -109 -28 -10 -51 -22 -51 -26 0 -4 -6 -8 -14 -8 -7
0 -19 -14 -26 -30 -7 -17 -16 -30 -21 -30 -5 0 -9 -6 -9 -14 0 -26 -37 -29
-62 -4 -27 27 -32 58 -10 58 8 0 13 3 9 6 -3 4 -18 3 -32 0 -22 -6 -25 -9 -14
-22 6 -8 9 -18 5 -21 -4 -4 -11 -1 -15 6 -5 7 -14 10 -20 6 -9 -5 -9 -10 0
-21 6 -8 7 -14 2 -14 -14 0 -71 56 -106 103 -15 20 -44 54 -62 74 l-35 38 0
-41 c0 -43 12 -64 81 -139 65 -70 81 -95 74 -112 -3 -10 -3 -14 1 -11 3 4 13
0 22 -8 11 -11 12 -18 3 -27 -8 -8 -11 -7 -11 6 0 9 -6 17 -13 17 -11 0 -17
-22 -20 -77 -1 -19 -21 -5 -40 29 -10 17 -20 28 -24 25 -11 -12 -31 41 -48
125 -10 46 -19 85 -21 87 -3 3 -4 -331 -4 -742 1 -612 4 -747 15 -747 7 0 15
7 19 15 6 17 27 21 23 4 -1 -6 4 -14 11 -16 7 -3 12 4 12 16 0 12 -6 21 -12
21 -8 0 -5 7 6 15 25 19 42 19 27 1 -9 -11 -10 -20 -1 -36 11 -20 17 -21 161
-18 83 1 152 5 155 9 7 12 7 53 -1 74 -4 12 -3 16 2 10 5 -5 29 -30 55 -54 41
-38 55 -45 134 -62 49 -10 157 -35 239 -54 83 -20 184 -42 225 -50 175 -31
469 -98 505 -115 11 -5 52 -18 90 -31 39 -12 84 -29 100 -37 40 -20 115 -82
115 -94 0 -16 -58 -1 -91 23 -16 11 -46 25 -67 31 -20 5 -64 20 -97 33 -33 13
-85 26 -115 29 -93 10 -263 36 -295 46 -16 5 -113 21 -215 36 -233 33 -267 39
-307 52 -25 8 -33 8 -34 -1 -3 -24 3 -42 19 -67 9 -14 15 -29 14 -34 -5 -16 8
-56 18 -56 6 0 10 8 10 18 0 9 5 24 10 32 16 24 49 -21 42 -57 -4 -24 -3 -26
10 -16 12 11 13 7 9 -30 -5 -34 -10 -43 -29 -45 -21 -3 -23 0 -20 32 2 19 -1
35 -7 36 -5 0 -11 -15 -13 -35 l-3 -35 -74 0 c-89 0 -108 6 -96 29 11 20 -2
47 -17 37 -15 -9 -26 12 -14 27 13 15 -1 97 -26 146 -12 26 -24 37 -44 39 -16
2 -28 8 -28 13 0 5 -4 9 -10 9 -5 0 -9 -5 -7 -11 1 -6 -4 -14 -10 -16 -8 -3
-13 3 -13 14 0 16 -10 18 -98 18 -110 0 -126 -6 -117 -42 3 -14 1 -30 -4 -37
-7 -8 1 -25 25 -55 19 -24 32 -46 30 -49 -3 -2 2 -11 10 -20 12 -11 13 -17 3
-26 -8 -8 -13 -8 -16 2 -3 6 -22 30 -44 53 -21 22 -39 48 -39 57 0 14 -2 15
-10 2 -12 -20 -19 -11 -22 34 -1 24 -9 43 -22 52 -18 12 -23 12 -41 -7 -14
-15 -16 -23 -8 -26 15 -6 17 -49 3 -58 -16 -10 -12 -26 6 -23 10 2 19 -3 22
-11 3 -10 -3 -13 -27 -9 l-32 5 3 -45 c4 -53 23 -66 33 -23 6 28 25 44 25 21
0 -5 7 -7 16 -3 15 5 15 3 -1 -20 -9 -15 -22 -27 -27 -27 -6 0 -7 -11 -4 -24
5 -21 2 -25 -21 -29 -16 -2 1007 -5 2272 -6 l2301 -1 2 37 c3 32 1 35 -13 23
-9 -8 -14 -22 -11 -32 4 -16 0 -19 -27 -16 -25 2 -39 14 -67 53 -35 49 -66 71
-53 39 3 -9 0 -20 -8 -25 -11 -7 -9 -13 11 -29 14 -11 31 -20 38 -20 7 0 10
-4 7 -10 -9 -14 -71 -12 -95 3 -17 10 -22 9 -29 -2 -15 -23 -125 -7 -158 23
-14 14 -40 31 -57 39 -17 9 -53 26 -79 39 -41 20 -49 21 -57 8 -8 -12 -11 -11
-16 8 -4 13 -17 25 -32 29 -14 3 -37 12 -51 19 -17 9 -30 10 -43 3 -14 -7 -18
-6 -18 6 0 8 -4 15 -10 15 -5 0 -10 -5 -10 -11 0 -5 -4 -7 -10 -4 -17 11 -11
-15 12 -45 l22 -30 32 25 c34 26 49 32 39 15 -3 -6 1 -10 10 -10 13 0 13 -3
-4 -21 -11 -12 -27 -19 -38 -16 -15 4 -14 5 5 6 12 0 22 5 22 10 0 9 -47 1
-52 -9 -2 -3 5 -16 14 -28 14 -20 19 -22 37 -13 12 7 21 17 22 24 1 21 18 -27
18 -54 1 -29 -18 -39 -78 -39 -25 0 -32 3 -27 15 3 9 -3 20 -14 27 -11 7 -20
16 -20 21 0 15 -73 96 -82 91 -5 -3 -6 -9 -3 -13 2 -5 -4 -16 -14 -25 -13 -11
-21 -14 -26 -7 -3 6 -3 11 1 11 4 0 0 6 -9 12 -9 7 -30 51 -47 98 -17 47 -47
125 -66 173 -20 48 -34 93 -32 99 2 6 15 -18 29 -53 23 -60 27 -64 64 -71 22
-4 53 -5 68 -2 25 5 27 9 22 33 -4 21 1 33 27 58 18 17 38 32 45 34 23 8 -15
42 -47 42 -16 0 -30 5 -30 10 0 5 -11 7 -24 5 -16 -3 -27 0 -30 9 -4 8 -11 11
-18 7 -7 -4 -5 2 5 13 12 14 15 23 8 28 -19 11 -12 29 29 73 34 37 40 40 54
27 12 -13 15 -13 18 -1 2 11 8 10 28 -6 16 -13 18 -19 8 -15 -12 4 -18 1 -18
-8 0 -8 6 -13 13 -11 6 1 9 1 5 -1 -13 -7 -9 -25 9 -45 15 -16 15 -21 3 -28
-17 -11 -30 -4 -30 16 0 8 -5 14 -10 14 -6 0 -10 7 -8 16 2 9 -4 18 -14 19
-12 2 -15 -2 -11 -13 4 -10 9 -19 12 -22 3 -3 14 -22 23 -42 10 -21 22 -38 28
-38 5 0 10 -7 10 -15 0 -16 29 -46 44 -44 5 0 13 -5 17 -13 6 -10 9 -10 9 -1
0 7 -13 25 -29 40 -41 40 -55 69 -36 77 8 3 15 16 15 30 0 13 6 26 14 29 16 6
26 -1 26 -17 0 -6 -5 -4 -10 4 -8 12 -10 11 -10 -7 0 -12 -2 -27 -3 -35 -2 -7
-2 -10 0 -5 3 4 14 7 26 7 12 0 18 -4 12 -8 -14 -10 -19 -46 -6 -37 7 4 10 -3
8 -17 -1 -12 3 -23 9 -23 14 0 44 -31 44 -44 0 -14 19 -14 59 0 22 8 31 17 31
34 0 25 26 42 34 22 3 -8 5 -7 5 2 1 8 13 28 29 45 15 17 19 24 10 17 -11 -8
-18 -9 -18 -3 0 6 -10 12 -22 14 -12 2 -23 9 -26 16 -3 9 3 10 23 2 19 -7 31
-7 41 1 7 6 17 8 22 5 6 -3 15 1 22 9 7 8 20 15 29 15 23 0 41 19 34 36 -7 18
29 93 45 94 15 0 16 16 1 25 -19 12 -57 -5 -65 -28 -4 -12 -7 -35 -6 -52 1
-16 -2 -37 -8 -45 -7 -11 -8 -4 -3 23 5 35 -7 51 -22 27 -4 -6 -10 -8 -15 -5
-5 3 -13 -3 -19 -12 -7 -12 -10 -14 -11 -4 0 15 54 71 69 71 5 0 11 11 13 25
4 19 1 25 -11 25 -10 0 -22 5 -29 12 -9 9 -12 9 -12 -1 0 -7 -4 -10 -8 -7 -4
2 -14 1 -22 -4 -9 -6 -28 8 -64 45 -53 55 -96 84 -96 65 0 -5 5 -10 10 -10 6
0 10 -10 10 -21 0 -18 -2 -20 -16 -8 -13 11 -14 9 -8 -17 4 -16 7 -35 7 -42 0
-8 8 -12 19 -9 11 3 18 0 18 -9 0 -8 8 -17 18 -21 9 -3 28 -14 42 -24 14 -10
32 -17 40 -16 8 1 16 -2 18 -8 1 -5 -4 -10 -10 -10 -17 -1 -14 -65 2 -75 9 -5
9 -9 1 -14 -6 -4 -24 6 -41 22 -16 16 -41 33 -55 36 -23 6 -26 4 -20 -13 10
-31 -11 -33 -52 -6 -20 15 -39 27 -40 29 -7 6 44 0 56 -8 9 -6 17 -3 23 8 5 9
13 14 19 11 5 -4 9 -1 9 5 0 10 -42 31 -58 29 -19 -3 -23 2 -11 17 10 13 10
17 0 24 -10 5 -10 9 -2 15 9 5 9 10 0 21 -8 10 -8 14 0 14 6 0 11 5 11 11 0 6
-7 9 -15 5 -8 -3 -15 -1 -15 4 0 6 -6 10 -14 10 -8 0 -17 4 -20 9 -3 5 2 8 12
7 13 -1 16 6 14 33 -3 22 0 31 7 27 7 -4 11 1 11 13 0 24 61 91 84 91 19 0 19
-1 7 -34 -8 -19 -6 -28 6 -38 14 -11 16 -10 10 13 -6 23 -3 27 18 31 13 3 22
1 19 -3 -3 -5 2 -9 10 -9 16 0 31 -34 21 -50 -3 -5 -13 -10 -21 -10 -9 0 -14
-6 -11 -12 2 -7 14 -12 25 -12 12 1 22 -5 22 -12 0 -31 75 -46 83 -16 4 14 5
14 6 -3 1 -25 27 -48 71 -63 44 -16 43 -16 36 13 -4 15 1 36 12 56 22 39 48
53 39 20 -4 -11 -10 -31 -14 -43 -4 -15 -3 -19 5 -14 16 10 15 -5 -2 -26 -7
-10 -17 -14 -22 -10 -5 4 2 -5 15 -20 14 -16 28 -28 31 -28 4 0 5 46 2 102 -4
86 -8 105 -23 116 -11 7 -19 18 -19 24 0 7 6 6 15 -2 13 -11 15 -8 15 18 0 17
-5 43 -12 59 -14 34 -15 42 -21 104 -3 26 -17 74 -31 105 -14 31 -26 63 -26
70 0 8 -4 14 -9 14 -5 0 -14 14 -21 30 -7 17 -16 30 -21 30 -5 0 3 -24 18 -52
15 -29 28 -60 29 -68 1 -8 5 -24 9 -35 6 -17 5 -17 -9 3 -10 12 -24 22 -32 22
-8 0 -12 4 -9 10 3 5 -2 21 -12 35 -19 26 -39 34 -30 12 2 -7 -6 -18 -18 -23
-21 -10 -20 -4 18 68 90 170 107 205 138 278 17 41 42 98 54 125 13 28 43 113
68 190 25 77 66 203 91 280 69 215 76 256 75 428 -1 156 -3 155 -29 -13 -20
-136 -118 -512 -155 -595 -7 -16 -16 -41 -20 -55 -4 -14 -37 -97 -73 -185 -89
-214 -218 -466 -333 -651 l-95 -152 -34 29 c-56 45 -84 54 -131 39 -55 -18
-109 -68 -143 -132 -28 -52 -32 -55 -92 -72 -35 -10 -71 -16 -79 -12 -16 6 -5
25 75 128 34 44 79 161 82 214 1 27 6 54 10 60 4 6 12 31 17 55 17 85 53 224
67 264 8 23 14 51 14 65 0 13 4 37 9 54 5 17 21 69 35 116 14 47 31 112 38
145 6 33 15 62 19 65 4 3 10 23 14 45 5 30 4 36 -4 25 -8 -11 -9 3 -5 50 7 79
11 93 24 85 6 -4 10 -3 8 2 -6 23 16 94 32 103 10 5 21 26 24 47 4 21 24 74
45 118 21 44 41 93 45 109 4 16 16 41 27 54 27 35 26 111 -2 146 -19 24 -20
30 -9 57 10 24 10 35 0 55 -11 20 -11 47 0 157 20 192 19 202 -15 232 -17 14
-36 25 -44 25 -16 0 -78 18 -102 30 -9 5 -50 14 -92 21 -66 11 -85 11 -149 -5
-40 -9 -90 -20 -111 -25 -21 -5 -44 -14 -50 -20 -6 -6 -21 -11 -33 -11 -12 0
-35 -7 -50 -15 -16 -8 -43 -15 -60 -15 -32 0 -32 0 -36 62 -4 58 -7 64 -50
102 l-45 41 -2 135 c-2 74 -5 138 -7 142 -3 5 -1 8 5 8 5 0 33 -27 62 -60 29
-33 55 -57 57 -55 5 5 -107 137 -120 143 -4 2 -12 21 -18 42 -6 24 -29 57 -60
88 -28 28 -48 56 -45 64 3 8 -3 13 -20 14 -14 1 -25 -2 -25 -7 0 -10 -10 -3
-68 49 -22 20 -43 30 -53 27 -12 -4 -20 1 -24 15 -4 12 -13 19 -20 16 -14 -5
-95 32 -95 44 0 4 15 7 33 5 17 -1 38 3 46 9 8 6 42 12 75 13 34 0 113 8 176
17 122 16 489 20 610 6 337 -39 557 -152 747 -385 77 -95 157 -269 188 -410
13 -59 13 -56 14 106 1 153 0 167 -16 165 -15 -1 -18 8 -19 44 -1 25 -13 79
-28 121 -14 41 -26 90 -26 107 0 46 38 139 66 161 24 19 24 20 24 199 l0 180
-229 1 c-209 2 -240 -1 -348 -23 -65 -14 -128 -28 -140 -32 -21 -6 -22 -4 -17
25 l7 31 -493 0 -492 0 -17 -22 c-18 -22 -41 -18 -41 8 0 8 -8 14 -18 14 -14
0 -18 -6 -15 -27 4 -27 3 -28 -47 -30 l-52 -2 4 30 5 29 -214 0 c-200 0 -214
-1 -233 -20 -11 -11 -20 -24 -20 -28 0 -4 20 -25 45 -46 25 -22 45 -44 45 -49
0 -6 -18 6 -40 28 -22 21 -42 36 -45 33 -3 -3 -8 -29 -12 -57 -6 -55 -15 -64
-70 -74 -37 -7 -37 -7 -48 101 -9 96 -18 112 -59 112 -30 0 -35 -4 -41 -30 -4
-16 -11 -30 -17 -30 -7 0 -6 -5 1 -14 9 -10 8 -15 -4 -19 -12 -5 -14 2 -12 41
l2 47 -217 3 c-135 1 -218 -1 -218 -7 0 -6 10 -17 22 -25 15 -11 17 -16 8 -16
-19 1 -69 29 -52 30 6 0 12 5 12 10 0 7 -263 10 -770 10 l-770 0 0 -951z
m2435 896 c0 -25 -3 -45 -7 -45 -5 0 -8 20 -8 45 0 25 3 45 8 45 4 0 7 -20 7
-45z m-2267 28 c-10 -2 -26 -2 -35 0 -10 3 -2 5 17 5 19 0 27 -2 18 -5z m237
-3 c-3 -6 -42 -10 -86 -10 -104 0 -95 14 11 17 52 2 79 -1 75 -7z m1905 -5
c21 -25 1 -31 -22 -7 -18 18 -19 22 -6 22 8 0 21 -7 28 -15z m-1863 -1 c-3 -3
-12 -4 -19 -1 -8 3 -5 6 6 6 11 1 17 -2 13 -5z m1166 -57 c9 -4 17 -11 17 -17
0 -15 -30 2 -55 32 -20 23 -20 23 0 7 11 -9 28 -19 38 -22z m2184 17 c-3 -3
-12 -4 -19 -1 -8 3 -5 6 6 6 11 1 17 -2 13 -5z m-2894 -75 c-5 -5 -8 3 -7 19
3 49 7 58 11 23 3 -18 1 -37 -4 -42z m3010 20 c4 -16 3 -18 -8 -9 -7 6 -15 20
-18 31 -4 16 -3 18 8 9 7 -6 15 -20 18 -31z m-2247 6 c3 -14 10 -22 15 -19 5
3 51 -36 102 -86 50 -51 84 -89 73 -86 -15 5 -14 2 5 -18 18 -19 25 -22 27
-11 2 9 15 15 31 15 31 0 70 27 129 90 40 43 62 49 47 13 -5 -10 -8 -21 -7
-24 1 -4 -6 -6 -16 -5 -9 0 -25 -14 -36 -34 -10 -19 -37 -50 -59 -68 -47 -39
-76 -37 -118 6 -14 15 -34 32 -45 39 -15 9 -16 14 -6 21 10 7 6 16 -19 41 -17
18 -38 30 -45 27 -7 -3 -31 15 -52 40 -39 44 -59 84 -41 84 5 0 11 -11 15 -25z
m321 -7 c-3 -8 -6 -5 -6 6 -1 11 2 17 5 13 3 -3 4 -12 1 -19z m1703 -8 c-19
-12 -30 -12 -30 -1 0 10 31 20 40 14 2 -2 -2 -8 -10 -13z m-780 -23 c0 -6 7
-18 15 -27 14 -16 14 -18 0 -23 -10 -5 -19 4 -30 30 -19 45 -19 59 0 43 8 -7
15 -17 15 -23z m730 24 c0 -6 -5 -13 -11 -17 -6 -3 -9 -17 -6 -30 4 -21 0 -24
-25 -24 -28 0 -30 2 -23 27 4 16 7 28 8 29 39 24 57 29 57 15z m-2538 -45 c4
-22 -4 -28 -91 -67 -53 -23 -103 -48 -112 -56 -8 -7 -25 -13 -36 -13 -42 0
-170 -65 -181 -92 -2 -4 -11 -8 -19 -8 -9 0 -34 -15 -57 -33 -23 -18 -58 -41
-78 -50 -41 -19 -128 -103 -128 -124 0 -7 -3 -13 -8 -13 -7 0 -31 -48 -36 -73
-6 -28 -19 -47 -32 -47 -10 0 -11 7 -2 33 6 17 15 36 19 42 5 5 9 17 9 26 0
51 138 205 210 235 41 17 80 52 80 70 0 8 6 11 14 8 20 -8 219 99 232 125 7
14 13 18 16 10 5 -16 81 3 124 32 41 27 71 25 76 -5z m1716 7 c2 -8 -5 -13
-17 -13 -21 0 -35 13 -24 24 10 10 36 3 41 -11z m36 1 c9 -24 7 -34 -8 -34 -7
0 -16 11 -18 25 -6 28 16 36 26 9z m826 -1 c0 -13 -15 -33 -26 -33 -8 0 -14 2
-14 4 0 2 -2 10 -5 18 -4 9 3 13 20 13 14 0 25 -1 25 -2z m-1704 -58 c0 -25
-5 -45 -11 -45 -14 1 -6 90 8 90 3 0 4 -20 3 -45z m1401 39 c-3 -3 -12 -4 -19
-1 -8 3 -5 6 6 6 11 1 17 -2 13 -5z m-1017 -18 c0 -3 -4 -8 -10 -11 -5 -3 -10
-1 -10 4 0 6 5 11 10 11 6 0 10 -2 10 -4z m256 -11 c20 -15 20 -16 -41 -18
-48 -2 -62 15 -20 24 17 4 33 7 36 8 3 0 14 -6 25 -14z m1360 -14 c-3 -4 8
-18 24 -30 21 -15 30 -17 30 -8 0 20 -21 36 -38 29 -14 -5 -15 -4 -2 10 13 14
16 14 28 -3 14 -20 38 -27 26 -8 -4 8 0 7 15 -1 12 -6 19 -15 16 -21 -4 -5 -2
-9 4 -9 5 0 13 -9 16 -20 4 -11 11 -18 16 -15 5 4 9 -1 9 -9 0 -9 -3 -16 -6
-16 -3 0 -48 20 -98 45 -51 25 -103 45 -114 45 -12 0 -22 5 -22 10 0 6 14 10
30 10 17 0 30 5 30 10 0 7 7 7 20 0 11 -6 18 -15 16 -19z m-3347 -61 c7 -22 8
-31 1 -24 -6 6 -15 25 -20 44 -12 43 3 26 19 -20z m1636 -50 c-5 -8 -11 -8
-17 -2 -6 6 -7 16 -3 22 5 8 11 8 17 2 6 -6 7 -16 3 -22z m-574 -75 c-1 -15
-24 -12 -29 3 -3 9 2 13 12 10 10 -1 17 -7 17 -13z m-309 -86 c5 -3 3 -9 -6
-12 -12 -5 -16 0 -15 21 0 16 3 21 6 12 3 -8 10 -18 15 -21z m903 -3 c8 -7 11
-16 8 -20 -3 -3 0 -12 6 -20 21 -25 2 -40 -20 -17 -11 12 -24 21 -29 21 -6 0
-10 9 -10 19 0 16 9 25 28 30 2 1 10 -5 17 -13z m724 -188 c-1 -31 -1 -31 -8
-8 -5 14 -6 28 -4 33 9 15 13 6 12 -25z m1517 -3 c11 -27 -2 -37 -14 -11 -7
16 -8 26 -1 26 5 0 12 -7 15 -15z m-4206 -100 c0 -8 -7 -15 -15 -15 -8 0 -15
7 -15 15 0 8 7 15 15 15 8 0 15 -7 15 -15z m297 -97 c-2 -13 -4 -3 -4 22 0 25
2 35 4 23 2 -13 2 -33 0 -45z m3353 -378 c0 -5 -4 -10 -10 -10 -5 0 -10 5 -10
10 0 6 5 10 10 10 6 0 10 -4 10 -10z m-221 -41 c27 -10 31 -15 31 -47 l0 -37
-35 40 c-31 36 -42 55 -31 55 1 0 17 -5 35 -11z m-1830 -822 c1 -4 -8 -2 -18
5 -16 10 -17 15 -8 26 9 12 12 11 18 -5 4 -10 8 -21 8 -26z m1879 2 c-1 -16
-9 -35 -16 -42 -12 -10 -13 -6 -7 23 12 58 27 70 23 19z m-868 -904 c0 -91 -3
-165 -7 -165 -5 1 -19 17 -32 38 -20 32 -22 41 -12 68 6 17 11 55 11 84 0 46
24 140 36 140 2 0 4 -74 4 -165z m-2890 -65 c0 -6 11 -15 25 -20 21 -8 25 -16
25 -50 0 -22 -2 -40 -4 -40 -3 0 -15 18 -27 40 -13 22 -26 40 -31 40 -4 0 -8
9 -8 20 0 11 5 20 10 20 6 0 10 -5 10 -10z m4080 -167 c0 -5 16 -26 36 -48 25
-27 33 -40 23 -44 -7 -2 -18 4 -24 14 -5 10 -20 28 -32 41 -24 24 -30 44 -13
44 6 0 10 -3 10 -7z m30 -139 c0 -8 -8 -14 -17 -13 -10 0 -13 3 -6 5 7 3 9 12
6 21 -4 11 -2 14 5 9 7 -4 12 -14 12 -22z m-65 6 c3 -5 1 -10 -4 -10 -6 0 -11
5 -11 10 0 6 2 10 4 10 3 0 8 -4 11 -10z m188 -60 c16 -22 32 -38 37 -35 5 3
11 1 14 -4 4 -5 2 -12 -4 -16 -11 -7 -100 76 -100 93 0 20 24 2 53 -38z m-223
10 c-18 -11 -24 -6 -16 16 5 14 9 15 19 5 9 -9 9 -14 -3 -21z m63 24 c9 -3 13
-13 10 -24 -3 -12 -11 -16 -20 -13 -13 5 -13 3 -3 -16 6 -13 9 -25 6 -29 -9
-9 -17 3 -20 32 -1 14 -6 29 -9 33 -20 19 3 30 36 17z m-271 -41 c35 -33 35
-41 -1 -90 -32 -44 -28 -43 -193 -59 -54 -5 -68 -3 -68 8 1 25 70 123 108 151
32 25 43 28 82 23 29 -4 54 -16 72 -33z m403 -93 c22 0 25 -27 4 -46 -10 -9
-19 -12 -19 -6 0 6 5 14 10 17 6 3 10 11 10 16 0 6 -7 3 -16 -5 -18 -19 -40
-21 -50 -5 -5 8 -8 8 -13 0 -10 -15 -65 2 -69 22 -2 9 1 17 7 17 6 0 11 -4 11
-10 0 -5 7 -10 15 -10 8 0 15 4 15 9 0 4 16 7 35 5 21 -1 35 2 36 9 0 8 2 8 6
0 2 -7 11 -13 18 -13z m-45 -64 c0 -11 -19 -15 -25 -6 -3 5 1 10 9 10 9 0 16
-2 16 -4z m30 -16 c0 -5 -5 -10 -11 -10 -5 0 -7 5 -4 10 3 6 8 10 11 10 2 0 4
-4 4 -10z m-230 -70 c0 -5 -9 -10 -20 -10 -11 0 -20 5 -20 10 0 6 9 10 20 10
11 0 20 -4 20 -10z m25 -20 c-3 -5 -13 -10 -21 -10 -8 0 -12 5 -9 10 3 6 13
10 21 10 8 0 12 -4 9 -10z m-677 -73 c3 -12 -3 -17 -20 -16 -13 0 -17 3 -10 6
10 4 10 8 0 20 -10 13 -9 15 7 12 11 -3 21 -12 23 -22z m512 -11 c0 -2 -9 -6
-20 -9 -11 -3 -18 -1 -14 4 5 9 34 13 34 5z m-470 -61 c0 -9 -6 -12 -15 -9 -8
4 -15 10 -15 15 0 5 7 9 15 9 8 0 15 -7 15 -15z m24 -40 c3 -9 0 -15 -9 -15
-9 0 -12 6 -9 15 4 8 7 15 9 15 2 0 5 -7 9 -15z m416 11 c0 -3 -4 -8 -10 -11
-5 -3 -10 -1 -10 4 0 6 5 11 10 11 6 0 10 -2 10 -4z m130 -63 c0 -8 5 -11 10
-8 6 3 10 -1 10 -9 0 -21 -20 -20 -36 2 -18 23 -17 43 1 36 8 -4 15 -13 15
-21z m-49 -58 c3 2 10 -5 17 -15 7 -11 9 -20 5 -20 -15 0 -30 15 -42 40 -11
22 -10 23 2 8 8 -10 16 -16 18 -13z m-3814 -37 c-3 -8 -6 -5 -6 6 -1 11 2 17
5 13 3 -3 4 -12 1 -19z m303 -60 c0 -6 -7 -7 -16 -4 -9 3 -18 6 -20 6 -3 0 -3
4 1 10 7 11 35 2 35 -12z m3157 -130 c25 -62 46 -124 48 -138 3 -14 2 -17 -1
-7 -3 9 -9 17 -14 17 -4 0 -13 15 -20 33 -7 17 -28 64 -46 102 -17 39 -35 86
-39 105 -14 68 25 8 72 -112z m-45 12 c23 -47 22 -49 -9 -62 -38 -15 -44 -17
-78 -23 -22 -4 -25 -3 -11 3 18 8 18 9 2 15 -33 13 -49 8 -43 -13 3 -13 0 -20
-8 -20 -8 0 -15 10 -18 23 -3 21 -4 21 -11 2 -4 -11 -10 -26 -12 -32 -7 -26
-34 -14 -34 16 0 25 5 31 33 37 17 4 47 7 65 7 17 -1 32 3 32 8 0 5 -10 9 -22
9 -26 0 -55 16 -47 25 10 10 113 43 129 41 8 -1 23 -17 32 -36z m-182 -20 c0
-5 -7 -10 -16 -10 -8 0 -12 5 -9 10 3 6 10 10 16 10 5 0 9 -4 9 -10z m216 -86
c-4 -13 -2 -24 3 -24 14 0 27 -28 35 -70 l6 -35 -20 40 -21 40 3 -52 c3 -50
-8 -65 -25 -33 -4 8 -5 0 -2 -19 3 -19 12 -42 20 -51 8 -9 15 -20 15 -23 0
-15 -38 -6 -55 13 -22 24 -35 26 -35 5 0 -8 -4 -15 -10 -15 -5 0 -10 4 -10 9
0 5 -7 12 -16 15 -14 5 -15 4 -4 -9 13 -15 10 -16 -47 -15 -5 0 -8 8 -8 18 -1
21 -35 62 -52 62 -19 0 -26 19 -13 35 13 16 60 21 60 6 0 -5 -10 -12 -22 -15
-23 -7 -23 -7 -3 -15 12 -5 26 -16 33 -24 22 -26 78 14 80 58 0 6 -4 9 -9 7
-5 -1 -9 1 -9 5 0 17 17 32 50 47 19 9 24 13 12 10 -13 -3 -34 -7 -46 -8 -13
-2 -28 -6 -34 -10 -6 -3 -13 -2 -17 4 -3 6 2 13 12 16 10 3 30 12 45 20 14 8
33 14 42 14 9 0 19 7 22 15 9 24 26 5 20 -21z m-3088 14 c-3 -7 -13 -13 -23
-13 -10 0 -20 6 -22 13 -3 7 5 12 22 12 17 0 25 -5 23 -12z m2819 -7 c-3 -22
-62 -83 -71 -74 -10 10 -7 25 4 18 5 -3 7 0 4 8 -5 15 11 31 31 32 6 0 9 8 7
18 -2 10 3 17 12 17 10 0 15 -7 13 -19z m-2354 -148 c60 -40 113 -73 118 -73
6 0 7 -5 4 -10 -10 -16 -146 -8 -140 8 4 12 -74 109 -102 125 -7 4 -13 15 -13
23 0 18 -5 21 133 -73z m2407 77 c13 -9 13 -11 0 -20 -8 -5 -21 -10 -27 -10
-7 0 -13 -4 -13 -10 0 -6 -10 -5 -26 2 l-25 12 33 17 c39 21 39 21 58 9z
m-1058 -42 c-7 -7 -12 -8 -12 -2 0 14 12 26 19 19 2 -3 -1 -11 -7 -17z m953
11 c10 -16 5 -18 -91 -45 -104 -28 -105 -28 -98 -10 3 7 33 21 67 31 34 9 71
21 82 25 28 12 33 12 40 -1z m59 -37 c2 -4 1 -14 -5 -22 -6 -11 -9 -11 -9 -2
0 13 -8 12 -97 -10 -39 -9 -53 -17 -53 -30 0 -10 -5 -18 -11 -18 -12 0 -43 29
-38 35 7 6 173 54 191 54 9 1 19 -3 22 -7z m779 -49 c17 -24 27 -46 23 -50 -9
-9 -86 70 -86 87 0 23 33 3 63 -37z m-398 -9 c18 -39 13 -57 -10 -33 -18 18
-31 69 -17 69 5 0 17 -16 27 -36z m-325 3 c0 -24 1 -24 -85 -18 -28 1 -29 2
-10 13 11 7 36 15 55 19 19 4 36 7 38 8 1 0 2 -9 2 -22z m464 -2 c3 -8 1 -15
-4 -15 -6 0 -10 7 -10 15 0 8 2 15 4 15 2 0 6 -7 10 -15z m330 -25 c10 -13 9
-13 -6 -1 -10 7 -18 21 -17 30 0 13 1 14 6 1 3 -8 11 -22 17 -30z m-3996 -3
c-11 -19 -13 -20 -16 -4 -2 9 -9 17 -15 18 -7 0 -3 4 8 8 28 12 37 3 23 -22z
m3627 12 c-4 -5 3 -9 15 -9 12 0 18 -5 15 -10 -9 -14 -38 3 -41 24 -1 9 2 14
7 10 5 -3 7 -10 4 -15z m-780 -19 c-8 -13 -45 -13 -45 0 0 6 12 10 26 10 14 0
23 -4 19 -10z"/>
<path d="M4046 4311 c-3 -5 1 -11 9 -15 9 -3 15 0 15 9 0 16 -16 20 -24 6z"/>
<path d="M3507 183 c-4 -3 -7 -15 -7 -25 0 -26 24 -17 28 10 3 21 -8 29 -21
15z"/>
<path d="M3496 111 c-4 -7 -5 -15 -2 -18 9 -9 19 4 14 18 -4 11 -6 11 -12 0z"/>
<path d="M2735 4591 c-3 -5 -1 -12 5 -16 5 -3 10 1 10 9 0 18 -6 21 -15 7z"/>
<path d="M4564 4145 c-24 -32 -26 -40 -21 -102 5 -64 39 -208 51 -221 3 -3 6
76 6 176 0 100 -2 182 -4 182 -3 0 -17 -16 -32 -35z"/>
<path d="M1880 3950 c0 -5 5 -10 11 -10 5 0 7 5 4 10 -3 6 -8 10 -11 10 -2 0
-4 -4 -4 -10z"/>
<path d="M1555 3901 c3 -5 1 -13 -5 -16 -16 -10 8 -35 31 -35 31 0 23 55 -9
58 -12 1 -21 -2 -17 -7z"/>
<path d="M1400 3896 c0 -2 11 -6 25 -8 13 -3 22 -1 19 3 -5 9 -44 13 -44 5z"/>
<path d="M1480 3890 c0 -5 5 -10 10 -10 6 0 10 5 10 10 0 6 -4 10 -10 10 -5 0
-10 -4 -10 -10z"/>
<path d="M1398 3873 c7 -3 16 -2 19 1 4 3 -2 6 -13 5 -11 0 -14 -3 -6 -6z"/>
<path d="M1605 3789 c-11 -16 -1 -19 13 -3 7 8 8 14 3 14 -5 0 -13 -5 -16 -11z"/>
<path d="M1183 3705 c-6 -6 -8 -18 -3 -24 5 -9 9 -5 13 10 7 28 6 31 -10 14z"/>
<path d="M768 3253 c7 -3 16 -2 19 1 4 3 -2 6 -13 5 -11 0 -14 -3 -6 -6z"/>
<path d="M660 3210 c0 -5 5 -10 11 -10 5 0 7 5 4 10 -3 6 -8 10 -11 10 -2 0
-4 -4 -4 -10z"/>
<path d="M761 3201 c-8 -5 -11 -16 -8 -25 4 -10 1 -16 -8 -16 -9 0 -12 -6 -9
-15 8 -20 33 -19 41 1 3 8 12 13 19 10 15 -6 17 -1 8 32 -7 23 -20 27 -43 13z"/>
<path d="M706 3165 c-3 -9 -6 -24 -5 -33 0 -9 5 -4 10 12 9 32 6 48 -5 21z"/>
<path d="M590 3120 c-5 -43 -5 -45 -13 -57 -4 -6 -2 -15 4 -18 20 -13 29 10
20 55 -6 32 -10 38 -11 20z"/>
<path d="M610 3122 c0 -24 11 -34 27 -24 6 5 4 14 -8 26 -19 19 -19 19 -19 -2z"/>
<path d="M671 3101 c-8 -5 -9 -11 -3 -15 5 -3 12 1 16 9 6 17 6 18 -13 6z"/>
<path d="M320 3040 c0 -5 5 -10 10 -10 6 0 10 5 10 10 0 6 -4 10 -10 10 -5 0
-10 -4 -10 -10z"/>
<path d="M285 3000 c-8 -13 15 -24 27 -12 6 6 4 11 -6 15 -8 3 -18 2 -21 -3z"/>
<path d="M4588 2490 c-4 -14 -9 -59 -12 -100 l-5 -75 14 55 c8 30 14 75 12
100 -2 36 -3 40 -9 20z"/>
<path d="M380 2441 c0 -6 5 -13 10 -16 6 -3 10 1 10 9 0 9 -4 16 -10 16 -5 0
-10 -4 -10 -9z"/>
<path d="M1 2229 c1 -179 1 -182 15 -129 8 30 13 87 12 127 -1 40 0 75 4 78 3
4 20 -1 37 -9 16 -9 48 -16 71 -16 32 0 40 4 40 19 0 14 -12 22 -47 31 -27 7
-55 21 -63 30 -8 10 -27 25 -42 35 l-28 17 1 -183z"/>
<path d="M710 2390 c0 -13 5 -20 13 -17 6 2 12 10 12 17 0 7 -6 15 -12 18 -8
2 -13 -5 -13 -18z"/>
<path d="M428 2273 c7 -3 16 -2 19 1 4 3 -2 6 -13 5 -11 0 -14 -3 -6 -6z"/>
<path d="M4545 2240 c-4 -12 -5 -24 -2 -27 3 -2 8 5 12 17 4 12 5 24 2 27 -3
2 -8 -5 -12 -17z"/>
<path d="M4581 2234 c0 -11 3 -14 6 -6 3 7 2 16 -1 19 -3 4 -6 -2 -5 -13z"/>
<path d="M4577 1973 c-4 -3 -7 -17 -7 -30 0 -33 24 -24 28 10 3 26 -7 35 -21
20z"/>
<path d="M4456 1958 c17 -31 37 -46 52 -41 11 5 14 2 10 -9 -4 -10 10 -33 38
-64 24 -27 44 -43 44 -37 0 7 -9 18 -20 25 -11 7 -20 20 -20 29 0 25 -38 96
-55 103 -29 11 -57 7 -49 -6z"/>
<path d="M240 1930 c0 -5 5 -10 10 -10 6 0 10 5 10 10 0 6 -4 10 -10 10 -5 0
-10 -4 -10 -10z"/>
<path d="M325 1880 c3 -5 10 -10 16 -10 5 0 9 5 9 10 0 6 -7 10 -16 10 -8 0
-12 -4 -9 -10z"/>
<path d="M4480 1859 c0 -9 7 -22 15 -29 19 -16 19 0 0 26 -12 16 -14 16 -15 3z"/>
<path d="M4357 1802 c-15 -32 -27 -62 -27 -67 0 -5 14 -23 31 -41 l31 -32 -20
-43 c-15 -32 -17 -46 -9 -51 7 -5 0 -8 -15 -8 -16 0 -28 -4 -28 -10 0 -5 -9
-2 -20 7 -11 9 -17 19 -15 21 3 3 11 -1 20 -8 12 -10 15 -10 15 4 0 25 -40 19
-66 -9 -38 -41 -41 -72 -11 -103 14 -15 38 -52 53 -82 43 -88 44 -88 71 -13
14 38 29 88 33 113 5 25 14 59 20 77 10 26 9 36 -4 55 -9 12 -16 26 -16 30 0
14 29 -4 33 -20 2 -10 8 5 14 31 10 42 8 53 -12 95 -12 26 -26 62 -30 80 -3
17 -10 32 -14 32 -4 0 -20 -26 -34 -58z m53 -221 c0 -5 -7 -14 -15 -21 -13
-10 -15 -9 -15 9 0 12 6 21 15 21 8 0 15 -4 15 -9z"/>
<path d="M4513 1757 c4 -9 10 -24 14 -34 4 -11 3 -14 -5 -9 -8 5 -12 -1 -12
-15 l0 -22 25 23 c31 29 31 30 -2 54 -23 17 -26 17 -20 3z"/>
<path d="M4466 1739 c12 -13 20 -16 22 -9 3 7 -2 16 -9 21 -25 16 -32 9 -13
-12z"/>
<path d="M4551 1699 c-11 -18 -11 -23 1 -30 7 -5 13 -21 14 -36 0 -15 4 -44 8
-63 l8 -35 -28 37 c-31 40 -48 49 -41 21 3 -10 8 -29 11 -43 4 -14 19 -35 35
-47 l28 -22 -5 26 c-3 18 -1 24 7 19 16 -10 15 166 -1 182 -16 16 -21 15 -37
-9z"/>
<path d="M4303 1684 c-6 -16 12 -34 35 -34 9 0 8 7 -4 25 -19 29 -23 30 -31 9z"/>
<path d="M4465 1648 c-39 -114 -43 -132 -20 -102 8 10 15 29 15 42 0 12 6 21
13 20 7 -2 13 9 15 25 3 27 -15 38 -23 15z"/>
<path d="M4466 1545 c-5 -19 -1 -36 11 -54 l18 -26 3 39 c2 24 -2 44 -11 53
-13 13 -15 11 -21 -12z"/>
<path d="M4416 1425 c-39 -82 -47 -154 -21 -188 13 -18 15 -17 38 20 27 43 67
145 67 171 0 9 -11 30 -24 45 l-24 28 -36 -76z m4 -75 c6 -11 8 -20 6 -20 -3
0 -10 9 -16 20 -6 11 -8 20 -6 20 3 0 10 -9 16 -20z"/>
<path d="M4531 1449 c-1 -15 -8 -45 -16 -68 -8 -22 -10 -41 -5 -41 5 0 7 -7 3
-16 -5 -13 -7 -13 -14 -2 -7 10 -9 10 -9 -3 0 -17 -76 -132 -91 -137 -19 -7
-8 -19 14 -15 21 4 43 -20 141 -152 9 -11 16 -15 16 -9 0 6 -8 22 -18 35 -24
32 -49 87 -56 124 -3 17 -3 24 0 17 3 -6 10 -10 15 -7 5 4 6 -1 3 -9 -3 -9 -2
-16 4 -16 5 0 12 12 15 26 3 19 1 24 -11 19 -12 -4 -13 -3 -3 9 7 8 10 20 6
26 -3 5 -1 10 4 10 6 0 11 -7 11 -16 0 -8 5 -12 10 -9 6 3 10 -3 10 -14 0 -10
-4 -21 -9 -23 -22 -7 -20 -63 5 -115 18 -38 22 -58 15 -70 -8 -15 -14 -11 -48
25 -22 23 -42 42 -47 42 -7 0 45 -79 68 -102 7 -8 23 -32 34 -54 l21 -39 -2
225 c-2 219 -3 226 -24 248 -30 29 -29 47 0 27 22 -14 24 -14 24 2 0 10 -9 30
-19 45 -11 16 -16 33 -12 40 5 7 2 9 -9 5 -9 -3 -18 -1 -21 6 -2 7 -5 0 -5
-14z"/>
<path d="M4331 1213 c0 -4 4 -17 9 -28 8 -19 9 -19 9 2 1 12 -3 25 -9 28 -5 3
-10 3 -9 -2z"/>
<path d="M4351 1145 c0 -11 4 -38 10 -60 5 -22 12 -53 14 -70 3 -16 9 -31 14
-33 6 -2 7 -25 4 -54 -4 -36 -2 -52 7 -58 8 -5 14 -24 14 -43 0 -21 5 -34 13
-34 7 0 11 7 9 16 -10 33 -20 98 -30 196 l-7 60 21 -55 c12 -30 23 -78 25
-107 5 -76 15 -113 31 -113 8 0 14 -7 14 -16 0 -9 7 -14 17 -12 10 2 26 -5 35
-14 29 -29 58 -23 58 10 0 15 -5 33 -12 40 -7 7 -9 12 -5 12 17 0 -137 245
-171 272 -12 10 -14 10 -8 1 4 -7 3 -13 -3 -13 -13 0 -23 17 -37 60 -8 22 -12
28 -13 15z m119 -260 c7 -9 8 -15 2 -15 -5 0 -12 7 -16 15 -3 8 -4 15 -2 15 2
0 9 -7 16 -15z"/>
<path d="M4266 788 c-4 -15 -5 -31 -2 -36 7 -12 -16 -75 -31 -85 -7 -4 -17
-17 -23 -27 -8 -15 -7 -18 3 -14 8 3 14 -2 14 -13 -1 -48 4 -73 13 -73 6 0 10
16 10 35 0 40 15 47 24 10 4 -14 13 -25 22 -25 8 0 36 11 62 25 26 14 53 25
59 25 7 0 13 7 13 16 0 13 -3 14 -13 5 -14 -11 -27 -5 -27 11 0 5 6 6 13 2 9
-6 9 -4 1 7 -6 8 -14 31 -17 51 -3 20 -13 48 -23 63 -14 22 -23 26 -50 23 -24
-3 -34 0 -37 12 -2 9 -7 5 -11 -12z m72 -49 c4 -24 3 -24 -12 -4 -19 24 -20
38 -3 33 6 -3 13 -15 15 -29z"/>
<path d="M4000 761 c0 -11 26 -22 34 -14 12 12 5 23 -14 23 -11 0 -20 -4 -20
-9z"/>
<path d="M4401 714 c0 -11 3 -14 6 -6 3 7 2 16 -1 19 -3 4 -6 -2 -5 -13z"/>
<path d="M4513 676 c3 -32 7 -60 9 -62 2 -2 21 2 41 8 35 11 37 13 37 55 0 41
-1 43 -29 43 -16 0 -37 3 -47 7 -15 6 -17 1 -11 -51z"/>
<path d="M4442 700 c0 -14 2 -19 5 -12 2 6 2 18 0 25 -3 6 -5 1 -5 -13z"/>
<path d="M4451 644 c0 -11 3 -14 6 -6 3 7 2 16 -1 19 -3 4 -6 -2 -5 -13z"/>
<path d="M4590 560 c0 -6 -11 -8 -25 -6 -31 6 -35 -20 -4 -29 16 -5 18 -9 8
-21 -9 -11 -15 -12 -25 -3 -11 9 -14 6 -14 -14 0 -19 7 -28 30 -35 16 -6 32
-7 34 -3 6 9 5 121 -1 121 -2 0 -3 -5 -3 -10z"/>
<path d="M4427 524 c-13 -13 -7 -24 14 -24 11 0 19 5 17 12 -5 14 -22 21 -31
12z"/>
<path d="M4480 510 c0 -11 4 -20 8 -20 4 0 8 9 9 20 1 11 -2 20 -8 20 -5 0 -9
-9 -9 -20z"/>
<path d="M4303 480 c-27 -12 -43 -26 -43 -37 0 -12 -3 -14 -8 -6 -4 7 -17 11
-29 10 -17 -1 -20 -5 -12 -19 11 -21 29 -33 29 -19 0 6 7 11 16 11 8 0 13 -4
10 -9 -8 -13 4 -41 17 -41 6 0 20 8 31 18 20 17 20 17 3 -10 -22 -35 -21 -38
4 -38 11 0 18 -4 15 -9 -3 -4 12 -27 34 -49 38 -38 60 -46 77 -27 4 4 2 5 -4
1 -10 -5 -13 4 -13 33 0 46 9 73 21 65 5 -3 9 2 9 10 0 9 -6 16 -14 16 -9 0
-13 12 -13 39 0 22 3 39 6 38 3 -1 7 3 9 8 1 6 -8 12 -20 13 -13 2 -27 8 -32
13 -15 14 -46 10 -93 -11z m-10 -50 c3 -11 2 -20 -3 -20 -4 0 -10 9 -13 20 -3
11 -2 20 3 20 4 0 10 -9 13 -20z m124 -2 c-3 -8 -6 -5 -6 6 -1 11 2 17 5 13 3
-3 4 -12 1 -19z m3 -64 c0 -8 -5 -12 -10 -9 -6 4 -8 11 -5 16 9 14 15 11 15
-7z"/>
<path d="M4483 433 c-1 -10 -4 -43 -7 -73 l-5 -55 13 60 13 60 2 -45 c0 -29
-8 -64 -23 -97 -18 -37 -23 -60 -17 -79 15 -57 47 -23 36 38 -6 31 13 49 43
41 15 -4 21 -11 18 -27 -2 -11 -1 -15 1 -7 4 12 6 12 14 0 6 -10 9 -8 9 9 0
13 4 20 10 17 12 -8 13 64 1 84 -12 19 -21 0 -15 -32 2 -15 1 -27 -3 -28 -5 0
-16 -2 -25 -4 -22 -4 -23 8 -3 25 8 7 15 18 15 24 0 7 -4 6 -9 -2 -16 -26 -26
-13 -36 44 -10 55 -29 83 -32 47z"/>
<path d="M4530 405 c0 -28 12 -38 35 -29 22 9 15 35 -12 45 -20 7 -23 5 -23
-16z"/>
<path d="M4010 393 c-23 -10 -30 -17 -20 -21 7 -3 16 0 17 5 2 6 12 9 22 6 9
-2 23 3 30 11 18 21 -1 21 -49 -1z"/>
<path d="M4127 393 c-4 -3 -7 -17 -7 -30 0 -12 -4 -23 -10 -23 -5 0 -10 5 -10
10 0 6 -11 10 -24 10 -18 0 -25 -7 -29 -30 -7 -35 -22 -39 -30 -9 -5 17 -9 19
-26 10 -11 -6 -29 -11 -41 -11 -13 0 -18 -4 -14 -11 3 -6 15 -9 25 -6 11 3 17
2 14 -3 -3 -4 8 -13 24 -20 23 -9 36 -8 66 4 49 21 50 20 51 -9 1 -13 9 -31
17 -39 8 -9 17 -20 19 -25 1 -5 15 -13 31 -16 20 -6 27 -4 27 8 0 8 5 17 12
19 24 8 -3 28 -29 22 -18 -5 -24 -4 -19 5 4 6 11 9 16 6 4 -3 10 4 13 15 3 11
2 19 -2 19 -14 -2 -51 14 -51 22 0 5 13 9 29 9 17 0 33 5 36 10 3 6 2 10 -4
10 -5 0 -13 9 -16 20 -7 23 -45 27 -45 5 0 -8 -5 -15 -10 -15 -6 0 -8 11 -4
25 6 25 3 31 -9 18z"/>
<path d="M3905 350 c-10 -11 -13 -20 -7 -20 18 0 62 22 62 32 0 16 -37 8 -55
-12z"/>
<path d="M100 293 c1 -12 29 -47 34 -42 2 2 6 13 8 24 2 14 -3 21 -19 23 -13
2 -23 0 -23 -5z"/>
<path d="M4264 282 c-6 -4 -13 -17 -16 -29 -5 -20 -3 -21 22 -17 37 8 44 -7
25 -52 -8 -20 -15 -38 -15 -39 0 -2 15 -12 32 -24 l33 -20 12 22 c12 21 12 21
13 2 l1 -20 9 20 c15 35 12 47 -10 40 -23 -7 -25 -2 -7 26 11 18 8 24 -23 50
-65 55 -60 52 -76 41z"/>
<path d="M4074 269 c-3 -6 -1 -16 4 -21 8 -8 11 -5 9 11 -1 24 -3 25 -13 10z"/>
<path d="M3750 231 c0 -5 5 -13 10 -16 8 -5 7 -12 -2 -23 -11 -13 -11 -14 2
-10 18 6 20 50 3 56 -7 2 -13 -1 -13 -7z"/>
<path d="M4536 142 c-4 -13 -5 -26 -2 -29 10 -11 18 4 14 29 l-4 23 -8 -23z"/>
<path d="M4565 151 c-6 -11 9 -23 19 -14 9 9 7 23 -3 23 -6 0 -12 -4 -16 -9z"/>
</g>
</svg>
